<svg width="130" height="31" viewBox="0 0 130 31" fill="none" xmlns="http://www.w3.org/2000/svg">
<rect x="4.73438" y="5.03394" width="23.0866" height="20.5746" fill="white"/>
<path d="M16.3042 21.1412V13.4135L20.824 11.867L25.3125 13.4013L20.824 14.9161V22.6438L16.3042 21.1388V21.1412ZM7.26474 21.1412V9.04957L11.7845 7.50304L16.273 9.03737L11.7845 10.5522V22.6438L7.26474 21.1388V21.1412ZM19.3374 0.0338745H0V30.1984H19.3374C28.3361 30.1984 34.9908 23.7732 34.9908 15.0942C34.9908 6.41511 28.3361 0.0338745 19.3374 0.0338745Z" fill="#1D45C5"/>
<path d="M46.0352 7.36136H54.383C56.2214 7.36136 57.785 7.6559 59.0687 8.24499C60.3548 8.83407 61.3317 9.6907 62.0018 10.8173C62.6719 11.944 63.0057 13.3111 63.0057 14.9164V14.936C63.0057 16.5634 62.6719 17.9502 62.0018 19.094C61.3317 20.2378 60.3573 21.1116 59.076 21.708C57.7923 22.3069 56.2288 22.6064 54.383 22.6064H46.0352V7.36136ZM54.1498 19.8843C55.2985 19.8843 56.2656 19.7002 57.056 19.3345C57.8439 18.9688 58.4428 18.4214 58.8527 17.6974C59.2601 16.9708 59.4663 16.07 59.4663 14.9925V14.9704C59.4663 13.9125 59.265 13.0215 58.8625 12.2974C58.46 11.5709 57.866 11.0235 57.0781 10.6504C56.2902 10.2773 55.3133 10.0908 54.1498 10.0908H49.523V19.8843H54.1498Z" fill="white"/>
<path d="M77.8308 17.0583C77.8308 15.8654 77.5583 14.8247 77.0036 13.9288C76.4489 13.0329 75.6659 12.3432 74.6424 11.8474C73.6115 11.3515 72.3916 11.1061 70.9679 11.1061C69.5787 11.0889 68.3588 11.3196 67.3181 11.7958C66.27 12.2744 65.4502 12.9642 64.8709 13.8502C64.2818 14.7363 63.9922 15.7869 63.9922 17.0043V17.0117C63.9922 18.2561 64.2818 19.3066 64.8537 20.1829C65.4256 21.0518 66.2528 21.717 67.3181 22.1784C68.3833 22.6399 69.6548 22.8682 71.1299 22.8682C71.9645 22.8682 72.7426 22.7823 73.4568 22.6203C74.1735 22.4583 74.8117 22.2202 75.3763 21.9134C75.9482 21.5967 76.4243 21.2138 76.8097 20.7622C77.2024 20.3105 77.4749 19.8074 77.6442 19.2453L77.6688 19.1348H74.5049L74.4632 19.2036C74.3085 19.4932 74.0705 19.7411 73.7563 19.9448C73.4396 20.1584 73.0666 20.3105 72.6297 20.4235C72.1952 20.5339 71.7264 20.5855 71.2232 20.5855C70.4721 20.5855 69.7996 20.475 69.2031 20.2615C68.6067 20.0406 68.1281 19.6822 67.7869 19.1864C67.5144 18.7937 67.3426 18.3077 67.2935 17.7186H77.8332V17.0534L77.8308 17.0583ZM67.3524 15.8482C67.4212 15.4899 67.5488 15.1659 67.7108 14.8836C68.0102 14.3878 68.4349 14.0147 68.9994 13.757C69.5713 13.5017 70.2365 13.3741 71.0195 13.3741C71.8025 13.3741 72.4357 13.5017 72.9733 13.7668C73.5182 14.0221 73.9379 14.3976 74.2275 14.8762C74.3969 15.1659 74.5172 15.4899 74.5761 15.8482H67.3524Z" fill="white"/>
<path d="M82.129 22.1546C81.0711 21.676 80.2562 20.9936 79.6819 20.11C79.1075 19.2263 78.8203 18.1807 78.8203 16.978V16.9682C78.8203 15.763 79.1099 14.7223 79.6917 13.8411C80.2734 12.96 81.0907 12.2825 82.1437 11.8088C83.1967 11.3326 84.4338 11.0945 85.8574 11.0945C87.1117 11.0945 88.2187 11.2811 89.1809 11.6541C90.143 12.0272 90.9138 12.5525 91.4955 13.2299C92.0772 13.9049 92.4306 14.6953 92.5583 15.5961L92.5804 15.6918H89.3355L89.3036 15.6059C89.1195 14.9653 88.7366 14.4572 88.1524 14.0841C87.5682 13.711 86.8319 13.5245 85.9433 13.5245C85.1824 13.5245 84.5271 13.6644 83.9724 13.9418C83.4201 14.2191 82.9955 14.6168 82.6985 15.1298C82.4039 15.6452 82.2542 16.2564 82.2542 16.9682V16.9903C82.2542 17.7021 82.4015 18.3157 82.6936 18.8336C82.9856 19.3515 83.4103 19.7467 83.9674 20.0216C84.5246 20.2965 85.1849 20.434 85.9532 20.434C86.8343 20.434 87.5633 20.2523 88.145 19.8891C88.7268 19.5258 89.1146 19.0128 89.3134 18.3501L89.333 18.2764H92.5779L92.5558 18.3722C92.4282 19.2656 92.0723 20.0535 91.4832 20.7334C90.8941 21.4133 90.1234 21.9386 89.1686 22.3141C88.2138 22.6872 87.1141 22.8738 85.8672 22.8738C84.4289 22.8738 83.1845 22.6357 82.1266 22.1546H82.129Z" fill="white"/>
<path d="M105.475 13.1097C104.972 12.4543 104.255 11.9585 103.31 11.61C102.372 11.2688 101.246 11.0896 99.9252 11.0896C98.7053 11.0896 97.6572 11.2516 96.7785 11.5756C95.9096 11.8923 95.21 12.3439 94.697 12.9133C94.1767 13.4852 93.8625 14.1406 93.7324 14.8843L93.7079 15.0218H96.8791L96.9135 14.9187C97.0411 14.4572 97.3577 14.0989 97.8609 13.8264C98.3641 13.5613 99.0366 13.4263 99.8736 13.4263C100.828 13.4263 101.57 13.6129 102.09 13.9811C102.61 14.3566 102.876 14.877 102.876 15.5421V15.849L98.1162 15.952C96.9577 15.9864 96.0102 16.1386 95.2861 16.4135C94.562 16.6958 94.0319 17.0787 93.6907 17.5647C93.3495 18.0605 93.1875 18.6226 93.1875 19.2706V19.2877C93.1875 20.0462 93.3839 20.6868 93.7938 21.1974C94.2037 21.7177 94.7829 22.1178 95.5168 22.3903C96.2581 22.6627 97.1295 22.8002 98.126 22.8002C98.8501 22.8002 99.5079 22.7143 100.112 22.5523C100.718 22.3829 101.256 22.1423 101.724 21.8282C102.186 21.5214 102.552 21.1556 102.807 20.7187H102.876V22.6112H106.226V15.466C106.226 14.553 105.971 13.77 105.475 13.1122V13.1097ZM102.876 18.0654C102.876 18.5857 102.714 19.0374 102.397 19.4129C102.08 19.7885 101.638 20.0855 101.076 20.299C100.514 20.5027 99.8491 20.6156 99.0808 20.6156C98.3125 20.6156 97.6817 20.488 97.2129 20.2401C96.7343 19.9922 96.506 19.6166 96.506 19.1135V19.0889C96.506 18.6962 96.668 18.3894 97.0092 18.1587C97.3406 17.9279 97.8879 17.8101 98.639 17.7929L102.878 17.6898V18.0654H102.876Z" fill="white"/>
<path d="M114.837 11.1579C114.641 11.1333 114.437 11.1235 114.214 11.1235C113.31 11.1235 112.542 11.3444 111.919 11.7789C111.305 12.2231 110.871 12.8441 110.63 13.6369H110.571V11.3591L107.211 11.342V22.6058H110.571V17.25C110.571 16.4915 110.709 15.8681 110.988 15.3649C111.271 14.8544 111.671 14.4788 112.174 14.2211C112.677 13.9658 113.291 13.8284 113.99 13.8284C114.084 13.8284 114.177 13.8284 114.273 13.8358C114.324 13.7327 114.376 13.6222 114.435 13.5191C114.683 13.0749 114.989 12.6846 115.338 12.3336V11.234C115.193 11.1996 115.021 11.1751 114.835 11.1481L114.837 11.1579Z" fill="white"/>
<path d="M117.228 22.1351C116.33 21.6417 115.633 20.952 115.137 20.0635C114.639 19.1749 114.391 18.1514 114.391 16.9879V16.9659C114.391 15.7901 114.636 14.7642 115.129 13.8854C115.623 13.0067 116.32 12.3244 117.223 11.831C118.124 11.3376 119.189 11.0897 120.414 11.0897C121.202 11.0897 121.914 11.1879 122.549 11.3794C123.183 11.5733 123.733 11.8482 124.196 12.2041C124.663 12.56 125.041 12.9724 125.338 13.4461H125.411V7.35886H128.762V22.6064H125.411V20.5347H125.338C125.048 20.9937 124.673 21.3963 124.206 21.7497C123.742 22.1032 123.193 22.3756 122.559 22.5744C121.924 22.7708 121.214 22.869 120.424 22.869C119.192 22.869 118.126 22.6235 117.228 22.1302V22.1351ZM123.595 19.9726C124.165 19.6953 124.609 19.3001 124.921 18.7896C125.235 18.279 125.392 17.6777 125.392 16.9879V16.9659C125.392 16.2761 125.235 15.6748 124.916 15.1642C124.597 14.6537 124.157 14.2585 123.59 13.9812C123.023 13.7038 122.356 13.5639 121.587 13.5639C120.819 13.5639 120.124 13.7013 119.565 13.9763C119.005 14.2512 118.576 14.6414 118.276 15.1495C117.977 15.6576 117.827 16.2639 117.827 16.9659V16.9879C117.827 17.6998 117.977 18.3085 118.276 18.8166C118.576 19.3247 119.005 19.7125 119.565 19.9849C120.124 20.2574 120.799 20.3924 121.587 20.3924C122.375 20.3924 123.026 20.2525 123.595 19.9751V19.9726Z" fill="white"/>
</svg>
