<svg width="148" height="27" viewBox="0 0 148 27" fill="none" xmlns="http://www.w3.org/2000/svg">
<path fill-rule="evenodd" clip-rule="evenodd" d="M51.8284 3.98945C54.5588 6.64313 55.9329 9.81333 55.9329 13.5C55.9329 17.2045 54.5588 20.3746 51.8284 23.0283C49.098 25.682 45.7687 27 41.8581 27C37.9474 27 34.6181 25.682 31.8876 23.0283C29.1573 20.3746 27.8008 17.2045 27.8008 13.5C27.8008 9.81333 29.1573 6.64313 31.8876 3.98945C34.6181 1.33575 37.9474 0 41.8581 0C45.7687 0 49.098 1.33575 51.8284 3.98945ZM36.8552 8.29948C35.4988 9.68865 34.8294 11.4162 34.8294 13.5C34.8294 15.6015 35.4988 17.3291 36.8552 18.7183C38.194 20.1076 39.8675 20.8022 41.8756 20.8022C43.8662 20.8022 45.5397 20.1076 46.8785 18.7183C48.2172 17.3291 48.8866 15.6015 48.8866 13.5C48.8866 11.4162 48.2172 9.68865 46.8785 8.29948C45.5397 6.91029 43.8662 6.2157 41.8756 6.2157C39.8675 6.2157 38.194 6.91029 36.8552 8.29948Z" fill="white"/>
<path d="M76.8429 26.4657C75.5747 26.8219 74.2534 27 72.9147 27C68.9864 27 65.657 25.682 62.9266 23.0283C60.1962 20.3746 58.8223 17.2045 58.8223 13.5C58.8223 9.81333 60.1962 6.64313 62.9266 3.98945C65.657 1.33575 68.9864 0 72.8971 0C74.2534 0 75.5394 0.1781 76.7549 0.5343C77.988 0.890502 78.992 1.31794 79.7847 1.81663C80.5775 2.3153 81.2644 2.81398 81.8633 3.31267C82.4623 3.81135 82.885 4.23878 83.1317 4.59498L83.5368 5.11148L79.3796 9.49274C79.3585 9.46607 79.3357 9.43619 79.311 9.4036C79.2534 9.32761 79.1837 9.23589 79.0977 9.13654C78.992 8.99406 78.7102 8.72691 78.2874 8.35291C77.8646 7.97889 77.4242 7.6405 76.9663 7.35554C76.5083 7.07058 75.9093 6.80343 75.1694 6.57189C74.4295 6.34037 73.6722 6.2335 72.8971 6.2335C70.836 6.2335 69.1097 6.91029 67.7356 8.29948C66.3617 9.68865 65.6747 11.4162 65.6747 13.5178C65.6747 15.6015 66.3617 17.347 67.7356 18.7361C69.1097 20.1254 70.836 20.82 72.8971 20.82C73.7778 20.82 74.5705 20.6774 75.2752 20.4102C75.9974 20.1431 76.5083 19.8582 76.8076 19.5732L77.2305 19.1813V16.4387H73.2669V12.0574H84.1005V21.9063C83.9948 22.0489 83.8363 22.2269 83.6249 22.4585C83.3959 22.69 82.9379 23.0996 82.2333 23.6874C81.5287 24.275 80.7712 24.7915 79.9608 25.2546C79.1506 25.6998 78.1112 26.1095 76.8429 26.4657Z" fill="white"/>
<path d="M103.371 20.0722L110.418 11.1315V26.27H117.27V0.730469H111.14L103.371 10.7753L95.6205 0.730469H89.4902V26.27H96.3428V11.1315L103.371 20.0722Z" fill="white"/>
<path fill-rule="evenodd" clip-rule="evenodd" d="M139.448 26.27L137.633 20.8024H129.337L127.54 26.27H120.142L129.707 0.730469H137.282L146.847 26.27H139.448ZM133.494 7.85448L131.151 15.3346H135.837L133.494 7.85448Z" fill="white"/>
<path d="M0 7.9144V0.931641H8.71903V26.4713H1.83559V7.9144H0Z" fill="white"/>
<path d="M10.5547 26.4713H11.5771C15.4172 26.4713 18.5881 25.2424 21.1247 22.7846C23.6614 20.3267 24.9296 17.2991 24.9296 13.7015C24.9296 10.1038 23.6614 7.07611 21.1423 4.61834C18.6057 2.16053 15.4172 0.931641 11.5771 0.931641H10.5547V7.14733H11.5771C13.4795 7.14733 15.0297 7.77069 16.2452 8.98176C17.4431 10.2107 18.0596 11.778 18.0596 13.7015C18.0596 15.5893 17.4078 17.1565 16.1395 18.4033C14.8535 19.65 13.3386 20.2733 11.5771 20.2733H10.5547V26.4713Z" fill="white"/>
</svg>
