<svg width="153" height="28" viewBox="0 0 153 28" fill="none" xmlns="http://www.w3.org/2000/svg">
<g clip-path="url(#clip0_371_307)">
<path d="M140.094 27.16H148.351L132.565 13.16L132.253 14.91L152.791 0.595H144.812L129.373 15.155L140.094 27.16ZM106.58 27.16H114.247L132.114 10.325L122.4 0.63H114.421L128.887 12.11V10.465L106.58 27.16ZM96.3448 27.755C100.578 27.755 104.637 24.955 105.608 19.845H105.713V27.16H109.841V7.84H105.713V14.84H105.608C104.672 9.66 100.613 7.245 96.4491 7.245C91.0362 7.245 86.7695 11.34 86.7695 17.395C86.7695 23.415 91.0373 27.755 96.3448 27.755ZM97.5595 23.275C93.3265 23.275 90.7244 20.685 90.7244 17.395C90.7244 14.105 93.3265 11.795 97.5595 11.795C102.242 11.795 105.573 14.56 105.573 17.325C105.573 20.125 102.278 23.275 97.5595 23.275ZM70.6698 27.16H74.7984V17.815C74.7984 14.49 79.4128 10.815 85.4505 12.18V7.245C79.0662 6.86 75.9784 11.375 74.9375 15.54H74.8332V7.84H70.7045V27.16H70.6698ZM55.1264 23.205C50.4436 23.205 47.8415 20.65 47.8415 17.36C47.8415 14.07 50.4436 11.795 55.1275 11.795C59.7755 11.795 62.4831 14.07 62.4831 17.36C62.4831 20.685 59.7755 23.205 55.1264 23.205ZM55.1275 27.755C61.7204 27.755 66.4391 23.345 66.4391 17.36C66.4391 11.305 61.6857 7.245 55.1287 7.245C48.5369 7.245 43.8878 11.305 43.8878 17.36C43.8878 23.38 48.5346 27.755 55.1275 27.755ZM35.5285 27.195H39.656V0.595H35.5261L35.5285 27.195ZM16.2725 27.755C22.622 27.755 27.1668 25.375 29.9069 23.38V13.02H16.2018V17.955H29.4896V18.27C28.1022 20.02 23.6965 22.68 16.8961 22.68C9.99136 22.645 4.50886 19.915 4.50886 14.035C4.50886 7.98 10.3727 5.11 16.2702 5.11C22.1688 5.11 25.187 7.945 26.2267 11.2L30.6684 9.73C28.8996 3.22 22.9674 0 16.2018 0C8.49961 0 0 4.27 0 14C0 22.855 7.21766 27.755 16.2725 27.755Z" fill="white"/>
</g>
<defs>
<clipPath id="clip0_371_307">
<rect width="153" height="28" fill="white"/>
</clipPath>
</defs>
</svg>
