<svg width="144" height="25" viewBox="0 0 144 25" fill="none" xmlns="http://www.w3.org/2000/svg">
<path d="M125.696 0.912531C123.104 0.912531 121.002 2.98748 121.002 5.54696C121.002 8.10644 123.104 10.1813 125.696 10.1813H134.573V23.5772H143.962V0.912531H125.696ZM37.6504 9.99777H46.9496C46.2201 7.96447 44.4724 6.62056 42.3331 6.62056C40.0781 6.62056 38.4027 8.02031 37.6504 9.99777ZM55.7555 13.2896V13.2898H37.2549C37.5608 16.2337 39.497 18.2948 42.3331 18.2948C44.4502 18.2948 46.069 17.0886 46.8535 15.382H55.7555C54.8131 20.2335 49.7588 24.9155 42.4091 24.9155C34.1896 24.9155 28.8133 19.6728 28.8133 12.4578C28.8133 5.68808 34.1481 0 42.4091 0C51.2255 0 55.907 6.62859 55.7555 13.2896ZM13.518 18.2948C10.4214 18.2948 8.39606 15.8385 8.39606 12.4578C8.39606 9.28572 10.4058 6.62056 13.518 6.62056C15.7246 6.62056 17.5181 8.0483 18.2042 10.1896H26.7277C25.8907 4.22081 20.4958 0 13.5958 0C5.33463 0 0 5.68808 0 12.4578C0 19.6728 5.37613 24.9155 13.5958 24.9155C21.2389 24.9155 26.4413 20.1554 26.9421 14.4196H18.3781C17.8194 16.6175 16.0149 18.2948 13.518 18.2948ZM110.302 15.4279C110.302 14.0046 109.134 12.8509 107.692 12.8509H102.138V18.0048H107.692C109.134 18.0048 110.302 16.8511 110.302 15.4279ZM118.179 15.5512C118.179 19.9839 114.538 23.5772 110.048 23.5772H94.0187V0.912531H102.138V7.5253H110.048C114.538 7.5253 118.179 11.1186 118.179 15.5512ZM81.7025 0.912531L74.2945 11.398L66.8887 0.912531H58.7697V23.5772H66.8887V11.1315L73.0916 19.9426H75.7153L81.7025 11.2987V23.5772H89.8213V0.912531H81.7025ZM121.002 13.3342H131.248V23.5772H121.002V13.3342Z" fill="white"/>
</svg>
