<svg width="154" height="45" viewBox="0 0 154 45" fill="none" xmlns="http://www.w3.org/2000/svg">
<path d="M24.5723 28.3502L15.6267 8.10019C15.0606 6.86269 13.815 6.0752 12.4562 6.0752H10.7576C10.6444 6.0752 10.6444 6.0752 10.6444 6.1877L0.679688 28.3502C0.679688 28.4627 0.792923 28.4627 0.792923 28.4627H4.8694C4.98263 28.4627 4.98263 28.4627 4.98263 28.3502L7.24734 23.2877H15.74C15.74 21.3752 14.1547 19.8002 12.2297 19.8002H8.83263L12.6826 10.8002L16.8723 20.5877L20.2694 28.3502C20.2694 28.4627 20.3826 28.4627 20.3826 28.4627H24.4591C24.5723 28.4627 24.6856 28.4627 24.5723 28.3502Z" fill="white"/>
<path d="M54.6928 25.3125H49.9369V21.0375H54.6928C56.3913 21.0375 57.2972 21.825 57.2972 23.175C57.4104 24.4125 56.5046 25.3125 54.6928 25.3125ZM49.9369 14.4H54.2399C55.7119 14.4 56.6178 15.1875 56.6178 16.3125C56.6178 17.55 55.8252 18.3375 54.2399 18.3375H49.9369V14.4ZM58.0899 19.4625C59.5619 18.7875 60.6943 17.6625 60.6943 15.525C60.6943 12.9375 58.4296 11.25 55.0325 11.25H46.3134C46.2002 11.25 46.0869 11.3625 46.0869 11.475V28.35C46.0869 28.4625 46.2002 28.575 46.3134 28.575H55.1457C59.3354 28.575 61.4869 26.775 61.4869 23.9625C61.3737 21.6 60.1281 20.1375 58.0899 19.4625Z" fill="white"/>
<path d="M114.254 25.4256C111.083 25.4256 108.932 23.0631 108.932 19.9131C108.932 16.7631 111.083 14.4006 114.254 14.4006C117.425 14.4006 119.576 16.7631 119.576 19.9131C119.463 23.0631 117.425 25.4256 114.254 25.4256ZM114.254 10.9131C109.045 10.9131 104.969 14.7381 104.969 19.9131C104.969 25.0881 109.045 28.9131 114.254 28.9131C119.463 28.9131 123.539 25.0881 123.539 19.9131C123.539 14.7381 119.463 10.9131 114.254 10.9131Z" fill="white"/>
<path d="M129.315 11.25H127.276C127.163 11.25 127.05 11.3625 127.05 11.475V28.35C127.05 28.4625 127.163 28.575 127.276 28.575H130.9C131.013 28.575 131.126 28.4625 131.126 28.35V13.05C131.126 12.0375 130.334 11.25 129.315 11.25Z" fill="white"/>
<path d="M141.431 11.25H139.393C139.279 11.25 139.166 11.3625 139.166 11.475V18.3375H132.485C132.485 20.1375 133.957 21.6 135.769 21.6H139.053V28.35C139.053 28.4625 139.166 28.575 139.279 28.575H142.903C143.016 28.575 143.129 28.4625 143.129 28.35V13.05C143.243 12.0375 142.45 11.25 141.431 11.25Z" fill="white"/>
<path d="M99.5337 11.25H90.8146C90.8146 11.25 90.8146 11.25 90.7014 11.25C89.9087 11.25 89.3426 11.8125 89.1161 12.4875L84.0205 28.35C84.0205 28.4625 84.0205 28.4625 84.1338 28.4625H86.8514C87.644 28.4625 88.3234 28.0125 88.5499 27.225L92.5132 14.625H97.3823V28.2375C97.3823 28.35 97.4955 28.4625 97.6087 28.4625H101.232C101.346 28.4625 101.459 28.35 101.459 28.2375V13.05C101.346 12.0375 100.553 11.25 99.5337 11.25Z" fill="white"/>
<path d="M80.9633 11.2502H77.5662C77.453 11.2502 77.453 11.2502 77.3398 11.3627L69.1868 22.5002V12.9377C69.1868 11.9252 68.3942 11.1377 67.3751 11.1377H65.3368C65.2236 11.1377 65.1104 11.2502 65.1104 11.3627V28.2377C65.1104 28.3502 65.2236 28.4627 65.3368 28.4627H68.7339C68.8471 28.4627 68.8471 28.4627 68.9604 28.3502L77.1133 17.2127V28.3502C77.1133 28.4627 77.2265 28.5752 77.3398 28.5752H80.9633C81.0765 28.5752 81.1898 28.4627 81.1898 28.3502V11.4752C81.1898 11.3627 81.0765 11.2502 80.9633 11.2502Z" fill="white"/>
<path d="M37.2544 19.4625L42.5765 11.475C42.5765 11.475 42.5765 11.475 42.5765 11.3625C42.5765 11.25 42.4632 11.25 42.4632 11.25H38.5C38.3868 11.25 38.3868 11.25 38.3868 11.3625L33.8574 18.225H31.1397V13.05C31.1397 12.0375 30.3471 11.25 29.3279 11.25H27.2897C27.1765 11.25 27.0632 11.3625 27.0632 11.475V28.35C27.0632 28.4625 27.1765 28.575 27.2897 28.575H30.9132C31.0265 28.575 31.1397 28.4625 31.1397 28.35V21.375H34.1971L38.8397 28.4625L38.9529 28.575H42.9162C43.0294 28.575 43.0294 28.4625 43.0294 28.4625C43.0294 28.4625 43.0294 28.4625 43.0294 28.35L37.2544 19.4625Z" fill="white"/>
<path d="M143.242 5.84981C146.186 5.84981 148.451 3.48731 148.451 0.674805H148.677C148.677 3.59981 151.055 5.84981 153.886 5.84981V6.07481C150.942 6.07481 148.677 8.43731 148.677 11.2498H148.451C148.451 8.32481 146.073 6.07481 143.242 6.07481V5.84981Z" fill="white"/>
</svg>
