<svg width="102" height="41" viewBox="0 0 102 41" fill="none" xmlns="http://www.w3.org/2000/svg">
<g clip-path="url(#clip0_423_348)">
<path d="M35.0083 8.23168V0H7.25684C3.24545 0 0 4.63486 0 6.79295V33.7262C0 38.458 4.83851 40.5471 7.25684 40.9981H58.574L37.9959 21.7375C37.0408 20.8429 37.5972 19.7676 37.9959 19.3408L58.4033 0H46.4489C43.0922 3.19614 35.2475 10.6451 30.7391 14.8644C26.2307 19.0855 28.8604 24.0819 30.7391 26.0536L38.0831 32.9267H9.56204C9.40893 32.9389 9.25497 32.9189 9.10994 32.8681C8.9649 32.8173 8.83195 32.7368 8.71949 32.6317C8.60704 32.5266 8.51754 32.3991 8.45666 32.2574C8.39579 32.1157 8.36487 31.9629 8.36586 31.8085V9.43C8.36586 8.53545 9.16331 8.25777 9.56204 8.23168H35.0064H35.0083Z" fill="white"/>
<path d="M70.2723 0.0839844H61.5634L53.1104 8.17217L61.5634 8.2523V41.0038H70.2723V0.0839844Z" fill="white"/>
<path fill-rule="evenodd" clip-rule="evenodd" d="M80.1423 0H94.4001C97.7308 0 102 3.28373 102 7.12655V34.0319C101.687 36.3018 99.7282 40.8379 94.4001 40.8379H80.1423C76.385 40.8379 72.8317 37.8747 72.713 34.0319C72.5758 29.6113 72.6574 14.2531 72.713 7.12655C72.713 3.76455 75.7007 0 80.1423 0ZM83.0113 7.76577C81.9449 7.76577 81.0826 8.63423 81.0826 9.70582V30.8096C81.0826 31.8812 81.9449 32.7478 83.0113 32.7478H91.6164C92.6828 32.7478 93.547 31.8812 93.547 30.8096V9.70582C93.547 8.63423 92.6828 7.76764 91.6164 7.76764H83.0113V7.76577Z" fill="white"/>
</g>
<defs>
<clipPath id="clip0_423_348">
<rect width="102" height="41" fill="white"/>
</clipPath>
</defs>
</svg>
