<svg width="147" height="26" viewBox="0 0 147 26" fill="none" xmlns="http://www.w3.org/2000/svg">
<g clip-path="url(#clip0_423_291)">
<mask id="mask0_423_291" style="mask-type:luminance" maskUnits="userSpaceOnUse" x="0" y="0" width="147" height="26">
<path d="M147 0H0V26H147V0Z" fill="white"/>
</mask>
<g mask="url(#mask0_423_291)">
<path d="M75.5104 0.686221H75.5247L80.536 15.0717H70.4989L75.5104 0.686221ZM70.5883 -0.328125L61.2998 26.3288H66.5773L68.8267 19.8698H82.2119L84.4612 26.3288H89.7388L80.4503 -0.328125H70.5883Z" fill="white"/>
<path d="M51.7985 -0.328125V10.5987H38.0239V-0.328125H33.0107V26.3288H38.0239V15.4001H51.7985V26.3288H56.8136V-0.328125H51.7985Z" fill="white"/>
<path d="M123.88 -0.328125V4.47332V10.5987V15.4001V21.5255V26.3288H128.894H146.727V21.5255H128.894V15.4001H142.461V10.5987H128.894V4.47332H146.727V-0.328125H123.88Z" fill="white"/>
<path d="M15.3485 -0.328125L6.41379 25.3126H5.28467V-0.328125H0.271484V26.3288H4.69866H5.28467H6.06004H7.84842H11.3376L20.2723 0.686221H21.3998V26.3288H26.4147V-0.328125H15.3485Z" fill="white"/>
<path d="M112.603 -0.328125V15.0358H93.6271V14.6766L108.543 -0.328125H101.783L92.707 8.71372V15.6003V16.0501V19.9057H112.603V26.3288H117.617V-0.328125H112.603Z" fill="white"/>
</g>
</g>
<defs>
<clipPath id="clip0_423_291">
<rect width="147" height="26" fill="white"/>
</clipPath>
</defs>
</svg>
